<svg xmlns="http://www.w3.org/2000/svg" width="380" height="140" viewBox="0 0 380 140" fill="none" role="img" aria-label="BallLab logo">
  <g transform="translate(16 16)">
  <g stroke="#0A1B33" stroke-width="5.5" stroke-linecap="round" stroke-linejoin="round">
    <path d="M27 74.5C40 65.5 53.5 66.5 64 79C74.5 66.5 88 65.5 101 74.5V105C87.5 96 75 97.5 64 110C53 97.5 40.5 96 27 105V74.5Z"/>
    <path d="M64 79V110"/>
  </g>
  <path d="M64 79C75 55 88.5 39.5 105 28" stroke="#00B4C8" stroke-width="5.5" stroke-linecap="round" stroke-linejoin="round"/>
  <circle cx="106.5" cy="27" r="6.5" fill="#00B4C8"/>
  </g>
  <g fill="#0A1B33" transform="translate(160 92) scale(1 -1)">
    <path d="M3.145 0.000 L21.016 0.000 C30.613 0.000 35.797 4.839 35.797 11.899 C35.797 17.898 31.837 21.523 26.680 22.004 L26.680 22.058 C31.320 23.227 34.238 26.481 34.238 31.347 C34.238 37.836 29.145 42.195 20.055 42.195 L3.145 42.195 L3.145 0.000 Z M11.672 6.851 L11.672 18.098 L19.938 18.098 C24.324 18.098 26.907 15.887 26.907 12.379 C26.907 8.863 24.269 6.851 19.792 6.851 L11.672 6.851 Z M11.672 24.668 L11.672 35.344 L19.403 35.344 C23.227 35.344 25.574 33.277 25.574 29.988 C25.574 26.734 23.227 24.668 19.403 24.668 L11.672 24.668 Z M49.472 -0.507 C54.067 -0.507 56.641 1.305 58.227 4.223 L58.344 4.223 L58.344 0.000 L66.501 0.000 L66.501 20.282 C66.501 26.680 61.797 30.532 53.614 30.532 C45.394 30.532 40.527 26.626 40.156 20.445 L48.004 20.445 C48.203 22.738 50.242 24.324 53.360 24.324 C56.414 24.324 58.254 22.801 58.254 20.590 L58.254 20.391 C58.254 18.469 56.332 18.207 50.868 17.672 C44.633 17.110 39.195 15.180 39.195 8.437 C39.195 2.465 43.500 -0.507 49.472 -0.507 Z M51.801 5.292 C48.992 5.292 47.179 6.543 47.179 8.664 C47.179 11.047 49.445 12.153 52.309 12.579 C55.000 12.996 57.347 13.394 58.308 13.938 L58.308 10.929 C58.308 7.703 55.816 5.292 51.801 5.292 Z M80.742 42.195 L72.387 42.195 L72.387 0.000 L80.742 0.000 L80.742 42.195 Z M94.987 42.195 L86.632 42.195 L86.632 0.000 L94.987 0.000 L94.987 42.195 Z"/>
    <path d="M4.386 0.000 L29.027 0.000 L29.027 3.453 L8.238 3.453 L8.238 42.195 L4.386 42.195 L4.386 0.000 Z M43.046 -0.453 C48.429 -0.453 51.401 2.121 52.706 4.903 L52.788 4.903 L52.788 0.000 L56.413 0.000 L56.413 20.735 C56.413 26.481 51.854 30.441 45.203 30.441 C38.433 30.441 33.584 26.363 33.421 20.962 L37.101 20.962 C37.273 24.469 40.608 27.160 45.203 27.160 C49.761 27.160 52.788 24.442 52.788 20.735 L52.788 20.282 C52.788 17.926 50.386 17.844 44.804 17.074 C37.780 16.168 32.742 14.554 32.742 8.356 C32.742 2.492 37.354 -0.453 43.046 -0.453 Z M43.499 2.864 C39.366 2.864 36.448 4.758 36.448 8.183 C36.448 11.781 39.620 13.195 44.632 13.902 C48.574 14.446 51.746 14.953 52.788 15.887 L52.788 11.700 C52.788 6.516 49.480 2.864 43.499 2.864 Z M77.457 -0.535 C85.133 -0.535 90.480 5.691 90.480 14.953 C90.480 24.215 85.106 30.441 77.457 30.441 C72.953 30.441 69.020 28.094 67.371 24.269 L67.316 24.269 L67.316 42.195 L63.691 42.195 L63.691 0.000 L67.262 0.000 L67.262 5.664 L67.289 5.664 C69.156 1.785 72.953 -0.535 77.457 -0.535 Z M76.950 2.800 C70.941 2.800 67.062 7.558 67.062 14.953 C67.062 22.348 70.941 27.133 76.950 27.133 C82.641 27.133 86.801 22.738 86.801 14.953 C86.801 7.168 82.641 2.800 76.950 2.800 Z" transform="translate(101.987 0)"/>
  </g>
</svg>